<svg width="2117" height="576" viewBox="0 0 2117 576" fill="none" xmlns="http://www.w3.org/2000/svg">
<path d="M268.013 38.4353C268.813 38.4363 269.614 38.4372 270.439 38.4382C304.387 38.5235 340.255 41.5745 371.95 54.6228C372.839 96.7702 368.537 138.544 358.95 179.623C358.64 180.968 358.64 180.968 358.324 182.34C351.931 209.595 342.525 236.159 330.95 261.623C330.491 262.636 330.032 263.649 329.559 264.693C320.429 284.677 309.758 302.681 296.513 320.166C295.262 321.818 294.012 323.47 292.763 325.123C291.823 326.365 291.823 326.365 290.863 327.633C283.539 337.385 276.731 347.488 269.95 357.623C265.508 355.451 261.825 352.683 257.95 349.623C257.297 349.107 256.643 348.592 255.97 348.06C250.146 343.225 245.563 337.599 240.95 331.623C240.529 331.087 240.107 330.551 239.673 329.999C226.911 313.705 205.842 285.506 205.966 263.888C207.334 260.74 209.288 258.813 211.7 256.373C239.469 227.292 254.819 192.312 263.95 153.623C263.083 153.78 262.215 153.937 261.322 154.098C258.194 154.585 255.164 154.851 252.005 155.017C198.262 157.723 198.262 157.723 150.231 179.806C147.95 181.623 147.95 181.623 145.95 181.623C146.745 185.193 147.568 188.756 148.407 192.316C148.791 193.946 149.172 195.576 149.552 197.207C157.741 232.113 170.906 264.654 186.95 296.623C187.409 297.538 187.868 298.454 188.341 299.397C203.973 330.33 222.621 360.59 246.442 385.904C248.215 387.826 249.89 389.74 251.54 391.76C253.489 394.075 255.333 396.001 257.638 397.935C260.677 400.522 263.64 403.169 266.575 405.873C275.93 414.288 285.97 421.726 296.274 428.928C309.816 438.402 323.068 448.269 335.95 458.623C336.724 459.229 337.497 459.835 338.294 460.459C341.648 463.167 344.042 465.309 344.95 469.623C344.486 473.295 342.986 474.886 340.325 477.373C337.596 479.94 335.089 482.593 332.653 485.435C329.11 489.522 325.303 493.213 321.325 496.873C320.629 497.518 319.932 498.164 319.214 498.829C317.798 500.141 316.381 501.451 314.962 502.76C313.134 504.452 311.32 506.159 309.513 507.873C302.554 514.444 295.306 520.473 287.7 526.281C285.93 527.638 284.175 529.013 282.423 530.392C281.286 531.282 280.15 532.171 279.013 533.06C277.514 534.234 277.514 534.234 275.985 535.431C267.433 541.606 267.433 541.606 263.481 541.65C259.886 540.191 256.712 538.276 253.45 536.185C252.395 535.516 252.395 535.516 251.319 534.834C244.547 530.477 238.218 525.668 231.95 520.623C231.052 519.918 230.153 519.213 229.228 518.486C217.436 509.091 206.715 498.478 196.023 487.871C194.619 486.479 193.211 485.09 191.803 483.702C185.747 477.654 180.291 471.305 174.95 464.623C174.003 463.498 173.05 462.379 172.087 461.267C154.949 441.451 140.057 419.693 126.55 397.276C124.969 394.653 123.372 392.041 121.774 389.428C88.6607 334.809 64.8699 273.921 50.9502 211.623C50.6763 210.411 50.4024 209.199 50.1201 207.951C42.9806 175.883 37.4347 141.569 37.9502 108.623C38.5516 108.352 39.1529 108.082 39.7725 107.803C59.184 99.0514 78.3312 89.9033 96.9502 79.5603C123.187 65.0717 150.751 54.3788 179.95 47.6228C180.751 47.4338 181.552 47.2448 182.377 47.0501C193.504 44.47 204.755 42.8791 216.075 41.4353C218.021 41.1847 218.021 41.1847 220.007 40.929C235.976 38.9821 251.936 38.4106 268.013 38.4353Z" fill="url(#paint0_linear_10292_7568)"/>
<path d="M658.826 138.489C660.411 138.483 660.411 138.483 662.028 138.476C663.198 138.477 664.367 138.477 665.572 138.478C667.409 138.473 667.409 138.473 669.283 138.468C672.658 138.46 676.034 138.456 679.409 138.456C681.526 138.455 683.642 138.453 685.759 138.45C693.168 138.441 700.577 138.437 707.987 138.438C714.847 138.438 721.706 138.428 728.566 138.412C734.481 138.399 740.395 138.394 746.31 138.394C749.83 138.394 753.35 138.392 756.87 138.381C793.431 138.277 829.802 139.734 858.95 164.623C859.789 165.271 860.629 165.92 861.493 166.588C875.422 178.125 884.16 198.353 887.95 215.623C888.156 216.552 888.363 217.482 888.575 218.439C894.64 252.088 888.361 287.391 869.438 315.901C857.558 332.943 843.774 345.566 823.95 352.623C823.307 352.854 822.665 353.084 822.002 353.322C787.144 365.529 745.322 360.774 708.95 360.623C708.871 361.622 708.871 361.622 708.79 362.641C708.221 369.374 707.361 376.008 706.292 382.678C706.128 383.722 705.963 384.765 705.794 385.841C705.256 389.251 704.713 392.659 704.169 396.068C703.791 398.449 703.414 400.83 703.037 403.211C702.249 408.179 701.459 413.146 700.667 418.113C699.649 424.494 698.639 430.876 697.63 437.258C696.854 442.163 696.074 447.068 695.293 451.973C694.919 454.328 694.546 456.683 694.174 459.038C693.656 462.313 693.133 465.587 692.608 468.862C692.455 469.841 692.301 470.821 692.142 471.83C691.999 472.716 691.856 473.602 691.709 474.515C691.586 475.289 691.463 476.062 691.336 476.86C690.95 478.623 690.95 478.623 689.95 479.623C687.15 479.718 684.375 479.749 681.575 479.737C680.258 479.737 680.258 479.737 678.914 479.737C675.998 479.736 673.082 479.729 670.165 479.721C668.149 479.719 666.132 479.717 664.116 479.716C658.798 479.713 653.479 479.703 648.161 479.692C642.738 479.681 637.316 479.677 631.894 479.672C621.246 479.661 610.598 479.644 599.95 479.623C601.528 464.115 604.042 448.747 606.479 433.357C607.104 429.408 607.725 425.459 608.346 421.509C609.56 413.799 610.778 406.09 611.996 398.38C612.986 392.118 613.975 385.856 614.962 379.594C615.103 378.7 615.244 377.807 615.39 376.886C615.676 375.07 615.962 373.253 616.249 371.437C618.927 354.457 621.61 337.477 624.294 320.498C626.598 305.921 628.898 291.343 631.195 276.765C633.866 259.817 636.539 242.87 639.217 225.923C639.502 224.119 639.787 222.315 640.072 220.511C640.212 219.623 640.352 218.735 640.497 217.821C641.486 211.557 642.474 205.292 643.461 199.027C644.661 191.408 645.864 183.79 647.07 176.172C647.686 172.284 648.301 168.395 648.912 164.506C649.47 160.952 650.032 157.398 650.597 153.845C650.9 151.94 651.198 150.033 651.496 148.127C651.674 147.01 651.852 145.893 652.036 144.743C652.19 143.771 652.343 142.8 652.501 141.799C653.325 137.807 655.095 138.496 658.826 138.489ZM732.95 211.623C728.396 236.923 723.907 262.222 719.95 287.623C758.025 288.994 758.025 288.994 792.2 275.393C800.917 266.579 802.819 256.683 802.95 244.623C802.38 236.406 800.143 228.807 794.196 222.873C781.05 212.25 763.757 211.133 747.575 211.436C746.146 211.451 744.716 211.464 743.286 211.477C739.84 211.509 736.395 211.561 732.95 211.623Z" fill="url(#paint1_linear_10292_7568)"/>
<path d="M1830.95 243.623C1858.34 243.623 1885.73 243.623 1913.95 243.623C1913.35 250.849 1912.74 257.79 1911.52 264.891C1911.38 265.736 1911.24 266.58 1911.1 267.45C1910.8 269.264 1910.49 271.077 1910.19 272.891C1909.7 275.799 1909.22 278.707 1908.74 281.617C1907.37 289.883 1905.99 298.147 1904.61 306.411C1899.55 336.597 1899.55 336.597 1895.5 366.932C1895.38 367.965 1895.38 367.965 1895.26 369.019C1892.26 393.322 1892.26 393.322 1900.95 415.623C1908.41 422.116 1917.83 423.968 1927.53 423.498C1936.69 421.961 1943.54 415.926 1948.97 408.705C1964.49 384.516 1968.79 354.282 1973.12 326.455C1973.49 324.113 1973.86 321.771 1974.24 319.43C1975.2 313.341 1976.16 307.251 1977.12 301.16C1978.66 291.347 1980.21 281.537 1981.76 271.726C1982.3 268.309 1982.84 264.891 1983.37 261.472C1983.7 259.397 1984.03 257.322 1984.36 255.247C1984.58 253.821 1984.58 253.821 1984.8 252.366C1984.94 251.501 1985.08 250.637 1985.22 249.746C1985.4 248.618 1985.4 248.618 1985.58 247.466C1985.95 245.623 1985.95 245.623 1986.95 243.623C2014.01 243.623 2041.07 243.623 2068.95 243.623C2068.34 250.986 2067.69 258.094 2066.49 265.344C2066.35 266.236 2066.21 267.127 2066.06 268.045C2065.75 269.957 2065.44 271.869 2065.13 273.781C2064.63 276.823 2064.14 279.866 2063.65 282.909C2062.61 289.377 2061.56 295.844 2060.51 302.311C2059.3 309.797 2058.09 317.284 2056.88 324.772C2056.41 327.74 2055.92 330.706 2055.44 333.673C2053.86 343.431 2052.45 353.171 2051.39 363C2050.69 368.729 2049.5 374.317 2048.2 379.936C2047.94 381.088 2047.68 382.24 2047.41 383.427C2040.14 414.685 2029.62 447.527 2001.95 466.623C2001 467.287 2000.05 467.951 1999.07 468.635C1966.23 490.213 1920.81 492.658 1883.18 485.103C1866.67 481.548 1851.25 475.207 1837.95 464.623C1837.12 463.969 1836.29 463.316 1835.44 462.643C1820.25 449.869 1811.34 431.47 1809.12 411.86C1808.77 407.285 1808.77 402.71 1808.76 398.123C1808.75 397.149 1808.74 396.174 1808.73 395.17C1808.69 377.789 1812.31 360.385 1814.96 343.262C1815.38 340.558 1815.79 337.853 1816.21 335.149C1817.19 328.775 1818.18 322.402 1819.16 316.03C1820.18 309.464 1821.19 302.899 1822.2 296.333C1823.08 290.67 1823.95 285.008 1824.83 279.346C1825.35 275.974 1825.87 272.602 1826.39 269.23C1826.96 265.487 1827.54 261.744 1828.12 258.001C1828.3 256.887 1828.47 255.772 1828.64 254.624C1828.8 253.608 1828.96 252.592 1829.12 251.546C1829.26 250.662 1829.4 249.779 1829.54 248.868C1829.95 246.623 1829.95 246.623 1830.95 243.623Z" fill="url(#paint2_linear_10292_7568)"/>
<path d="M1117.95 243.623C1145.67 243.623 1173.39 243.623 1201.95 243.623C1197.39 274.374 1197.39 274.374 1195.46 285.934C1194.83 289.699 1194.21 293.467 1193.58 297.234C1193.46 298.01 1193.33 298.786 1193.19 299.586C1187.44 334.218 1187.44 334.218 1182.7 368.998C1182.6 369.799 1182.5 370.599 1182.4 371.424C1179.64 392.807 1179.64 392.807 1186.31 412.857C1192.32 420.407 1199.19 422.335 1208.51 423.432C1216.63 423.884 1222.54 421.498 1228.95 416.623C1229.52 416.199 1230.1 415.775 1230.69 415.338C1251.79 397.145 1255.56 357.673 1259.61 332.08C1259.94 330.09 1260.26 328.101 1260.58 326.111C1261.42 320.936 1262.25 315.76 1263.07 310.583C1263.91 305.348 1264.75 300.116 1265.6 294.883C1266.55 288.973 1267.51 283.062 1268.45 277.151C1268.6 276.244 1268.74 275.338 1268.89 274.403C1269.16 272.758 1269.42 271.113 1269.68 269.468C1271.06 260.846 1272.51 252.237 1273.95 243.623C1301.34 243.623 1328.73 243.623 1356.95 243.623C1351.23 282.514 1351.23 282.514 1349.13 295.439C1348.89 296.897 1348.66 298.355 1348.42 299.812C1347.46 305.785 1346.49 311.757 1345.53 317.728C1344.81 322.173 1344.09 326.618 1343.38 331.064C1343.26 331.77 1343.15 332.476 1343.03 333.204C1341.8 340.899 1340.63 348.588 1339.79 356.338C1339.01 363.546 1337.71 370.549 1336.14 377.623C1335.87 378.831 1335.61 380.04 1335.33 381.285C1333.27 390.539 1330.96 399.633 1327.95 408.623C1327.7 409.378 1327.45 410.134 1327.2 410.912C1318.39 437.369 1303.7 460.26 1278.35 473.564C1240.77 492.326 1193.43 493.268 1153.86 480.424C1142.68 476.515 1131.73 470.632 1122.95 462.623C1122.12 461.874 1121.29 461.125 1120.44 460.354C1114.47 454.693 1109.99 448.771 1105.95 441.623C1105.56 440.958 1105.17 440.293 1104.77 439.607C1085.98 405.073 1099.44 358.027 1105.62 321.554C1108.45 304.809 1111.04 288.03 1113.64 271.248C1115.06 262.132 1116.48 253.016 1117.95 243.623Z" fill="url(#paint3_linear_10292_7568)"/>
<path d="M399.95 66.6232C405.235 66.4036 409.796 67.099 414.825 68.6232C415.935 68.9587 415.935 68.9587 417.067 69.3009C430.487 73.5421 442.539 80.4069 454.689 87.3956C463.798 92.6121 473.087 97.4398 482.43 102.217C483.527 102.779 484.624 103.341 485.755 103.92C486.734 104.419 487.714 104.917 488.723 105.431C490.95 106.623 490.95 106.623 491.95 107.623C497.139 185.121 461.808 274.409 428.95 342.623C428.292 343.998 428.292 343.998 427.62 345.401C422.497 356.049 416.915 366.378 411.05 376.634C405.661 386.067 400.525 395.629 395.396 405.205C391.563 412.359 387.673 419.481 383.768 426.596C381.411 430.901 379.105 435.213 376.95 439.623C350.01 436.485 326.075 419.917 306.95 401.623C306.28 401.004 305.61 400.386 304.919 399.748C300.741 395.769 296.973 391.461 293.325 386.998C292.862 386.46 292.4 385.921 291.923 385.366C290.661 383.772 290.661 383.772 288.95 380.623C291.656 364.76 307.656 347.669 317.013 335.061C329.546 318.168 340.938 300.667 349.984 281.646C350.607 280.341 351.239 279.04 351.881 277.745C380.701 219.511 388.768 150.528 396.991 86.8557C397.872 80.0937 398.859 73.3548 399.95 66.6232Z" fill="url(#paint4_linear_10292_7568)"/>
<path d="M1364.95 243.623C1393.33 243.623 1421.71 243.623 1450.95 243.623C1454.14 253.833 1457.21 263.97 1459.95 274.295C1460.32 275.655 1460.68 277.014 1461.05 278.374C1462.01 281.966 1462.96 285.56 1463.92 289.153C1465.52 295.164 1467.13 301.173 1468.73 307.183C1469.14 308.684 1469.54 310.186 1469.94 311.687C1472.46 321.138 1475.03 330.576 1477.66 339.998C1487.63 375.748 1487.63 375.748 1489.95 393.623C1490.33 392.77 1490.7 391.917 1491.09 391.038C1502.2 365.934 1514.58 341.923 1528.18 318.062C1532.03 311.298 1535.76 304.477 1539.45 297.623C1544.79 287.704 1550.29 277.884 1555.85 268.092C1559.27 262.068 1562.63 256.011 1565.97 249.94C1568.84 244.729 1568.84 244.729 1569.95 243.623C1572.81 243.528 1575.65 243.497 1578.51 243.509C1579.41 243.509 1580.3 243.509 1581.23 243.509C1584.21 243.51 1587.19 243.517 1590.17 243.525C1592.23 243.527 1594.3 243.528 1596.36 243.529C1601.79 243.533 1607.23 243.543 1612.67 243.554C1618.21 243.564 1623.75 243.569 1629.3 243.574C1640.18 243.585 1651.07 243.602 1661.95 243.623C1660.68 245.852 1659.41 248.08 1658.14 250.307C1657.79 250.933 1657.43 251.558 1657.06 252.203C1654.14 257.331 1651.09 262.37 1647.95 267.373C1646.82 269.183 1645.7 270.992 1644.57 272.803C1643.69 274.216 1643.69 274.216 1642.79 275.657C1639.52 280.928 1636.26 286.213 1633.01 291.498C1632.34 292.593 1631.66 293.688 1630.97 294.816C1625.96 302.958 1620.99 311.121 1616.03 319.29C1611.67 326.458 1607.26 333.594 1602.84 340.721C1598.31 348.017 1593.85 355.348 1589.39 362.685C1584.27 371.117 1579.1 379.52 1573.92 387.919C1569.51 395.077 1565.13 402.25 1560.76 409.435C1556.36 416.686 1551.92 423.915 1547.45 431.123C1542.83 438.561 1538.25 446.02 1533.7 453.498C1533.16 454.388 1532.62 455.278 1532.06 456.195C1531.52 457.076 1530.99 457.957 1530.43 458.865C1529.9 459.71 1529.37 460.555 1528.82 461.425C1527.45 463.768 1526.33 465.954 1525.23 468.415C1520.37 478.743 1520.37 478.743 1514.33 480.941C1509.91 481.548 1505.54 481.314 1501.1 481.088C1499.48 481.06 1497.85 481.038 1496.23 481.023C1491.98 480.966 1487.74 480.819 1483.49 480.653C1479.15 480.499 1474.8 480.431 1470.46 480.355C1461.95 480.195 1453.45 479.939 1444.95 479.623C1437.11 457.486 1429.44 435.299 1421.91 413.053C1416.92 398.299 1411.86 383.569 1406.7 368.873C1399.26 347.688 1392.08 326.419 1384.9 305.145C1383.97 302.395 1383.05 299.646 1382.12 296.896C1381.89 296.228 1381.67 295.56 1381.43 294.871C1378.61 286.5 1375.76 278.137 1372.88 269.787C1372.58 268.939 1372.29 268.09 1371.99 267.217C1370.7 263.484 1369.4 259.753 1368.1 256.025C1367.67 254.792 1367.24 253.558 1366.8 252.287C1366.44 251.25 1366.08 250.213 1365.7 249.145C1364.95 246.623 1364.95 246.623 1364.95 243.623Z" fill="url(#paint5_linear_10292_7568)"/>
<path d="M1086.95 239.623C1086.26 247.71 1084.6 255.513 1082.86 263.432C1082.55 264.849 1082.24 266.266 1081.94 267.683C1081.3 270.635 1080.65 273.586 1080 276.536C1079.17 280.319 1078.35 284.105 1077.54 287.891C1076.91 290.81 1076.27 293.727 1075.63 296.644C1075.33 298.04 1075.02 299.437 1074.72 300.834C1074.31 302.779 1073.88 304.721 1073.45 306.664C1073.21 307.769 1072.96 308.875 1072.72 310.013C1071.95 312.623 1071.95 312.623 1069.95 314.623C1066.99 314.162 1066.99 314.162 1063.14 313.248C1047.01 309.85 1029.6 309.523 1015.14 318.311C998.32 330.709 991.986 350.797 988.653 370.596C988.45 371.766 988.247 372.936 988.038 374.142C984.907 392.414 982.062 410.736 979.175 429.048C977.914 437.048 976.648 445.048 975.381 453.047C974.943 455.817 974.506 458.587 974.07 461.358C973.803 463.046 973.536 464.734 973.27 466.422C973.15 467.183 973.031 467.943 972.908 468.727C972.329 472.381 971.676 475.994 970.95 479.623C943.56 479.623 916.17 479.623 887.95 479.623C894.852 434.759 894.852 434.759 897.461 418.542C897.766 416.642 898.071 414.741 898.375 412.84C899.177 407.836 899.981 402.832 900.785 397.828C901.462 393.617 902.138 389.405 902.814 385.193C904.406 375.276 905.999 365.359 907.593 355.442C909.233 345.237 910.871 335.031 912.508 324.826C913.924 315.996 915.341 307.166 916.76 298.337C917.603 293.09 918.446 287.844 919.287 282.597C920.072 277.697 920.86 272.797 921.648 267.898C921.937 266.101 922.225 264.305 922.513 262.509C922.905 260.062 923.299 257.615 923.693 255.169C923.807 254.456 923.921 253.743 924.038 253.009C924.553 249.827 925.167 246.755 925.95 243.623C952.35 243.623 978.75 243.623 1005.95 243.623C1004.63 252.863 1003.31 262.103 1001.95 271.623C1001.95 273.273 1001.95 274.923 1001.95 276.623C1002.58 275.705 1003.21 274.787 1003.86 273.842C1016.29 255.911 1031.41 244.128 1053.2 239.342C1063.84 237.432 1076.38 237.266 1086.95 239.623ZM999.95 278.623C1000.95 280.623 1000.95 280.623 1000.95 280.623L999.95 278.623Z" fill="url(#paint6_linear_10292_7568)"/>
<path d="M1690.95 243.623C1719 243.623 1747.05 243.623 1775.95 243.623C1769.05 289.627 1769.05 289.627 1766.55 305.08C1766.25 306.902 1765.96 308.724 1765.67 310.546C1764.9 315.334 1764.12 320.121 1763.35 324.908C1762.53 329.983 1761.71 335.058 1760.89 340.132C1759.53 348.608 1758.16 357.084 1756.79 365.559C1755.21 375.327 1753.64 385.096 1752.06 394.865C1750.53 404.352 1749 413.839 1747.47 423.326C1746.83 427.331 1746.18 431.336 1745.53 435.342C1744.78 440.039 1744.02 444.736 1743.26 449.433C1742.98 451.148 1742.7 452.863 1742.43 454.577C1742.05 456.928 1741.67 459.278 1741.29 461.628C1741.13 462.629 1741.13 462.629 1740.97 463.651C1740.09 469.012 1739.02 474.285 1737.95 479.623C1710.56 479.623 1683.17 479.623 1654.95 479.623C1656.1 463.542 1656.1 463.542 1657.27 456.316C1657.39 455.484 1657.52 454.651 1657.66 453.794C1658.08 451.059 1658.52 448.326 1658.95 445.593C1659.26 443.61 1659.58 441.627 1659.89 439.645C1660.72 434.297 1661.57 428.95 1662.41 423.603C1663.3 417.98 1664.19 412.356 1665.07 406.732C1666.55 397.286 1668.04 387.842 1669.53 378.397C1671.63 365.131 1673.72 351.862 1675.8 338.594C1677.43 328.234 1679.06 317.874 1680.69 307.514C1680.95 305.864 1680.95 305.864 1681.22 304.181C1682.22 297.823 1683.22 291.466 1684.22 285.109C1684.53 283.194 1684.83 281.28 1685.13 279.365C1685.55 276.723 1685.96 274.08 1686.38 271.438C1686.5 270.706 1686.61 269.975 1686.73 269.221C1688.08 260.679 1689.53 252.155 1690.95 243.623Z" fill="url(#paint7_linear_10292_7568)"/>
<path d="M1763.95 133.623C1775.35 140.836 1783.12 150.719 1786.95 163.623C1789.25 178.051 1786.37 189.214 1778.95 201.623C1771.9 211.301 1761.73 217.019 1750.04 219.155C1736.05 220.775 1723.22 217.584 1712.08 208.811C1702.23 199.537 1698.48 187.235 1697.93 173.994C1698.01 162.71 1701.72 151.267 1709.5 142.869C1723.83 129.714 1745.84 123.279 1763.95 133.623Z" fill="url(#paint8_linear_10292_7568)"/>
<defs>
<linearGradient id="paint0_linear_10292_7568" x1="204.991" y1="38.4346" x2="204.991" y2="541.65" gradientUnits="userSpaceOnUse">
<stop stop-color="#B9C0D2"/>
<stop offset="1" stop-color="#566892"/>
</linearGradient>
<linearGradient id="paint1_linear_10292_7568" x1="745.378" y1="138.376" x2="745.378" y2="479.739" gradientUnits="userSpaceOnUse">
<stop stop-color="#566892"/>
<stop offset="1" stop-color="#BFC6D5"/>
</linearGradient>
<linearGradient id="paint2_linear_10292_7568" x1="1938.84" y1="243.623" x2="1938.84" y2="488.987" gradientUnits="userSpaceOnUse">
<stop stop-color="#929EB9"/>
<stop offset="1" stop-color="#E3E6ED"/>
</linearGradient>
<linearGradient id="paint3_linear_10292_7568" x1="1226.05" y1="243.623" x2="1226.05" y2="489.028" gradientUnits="userSpaceOnUse">
<stop stop-color="#8A96B3"/>
<stop offset="1" stop-color="#DBDFE8"/>
</linearGradient>
<linearGradient id="paint4_linear_10292_7568" x1="463.517" y1="78.5" x2="324.517" y2="424" gradientUnits="userSpaceOnUse">
<stop stop-color="#F8C8CA"/>
<stop offset="1" stop-color="#E7262E"/>
</linearGradient>
<linearGradient id="paint5_linear_10292_7568" x1="1513.45" y1="243.507" x2="1513.45" y2="481.328" gradientUnits="userSpaceOnUse">
<stop stop-color="#8A96B3"/>
<stop offset="1" stop-color="#DBDFE8"/>
</linearGradient>
<linearGradient id="paint6_linear_10292_7568" x1="987.45" y1="237.882" x2="987.45" y2="479.623" gradientUnits="userSpaceOnUse">
<stop stop-color="#8A96B3"/>
<stop offset="1" stop-color="#DBDFE8"/>
</linearGradient>
<linearGradient id="paint7_linear_10292_7568" x1="1715.45" y1="243.623" x2="1715.45" y2="479.623" gradientUnits="userSpaceOnUse">
<stop stop-color="#8D99B6"/>
<stop offset="1" stop-color="#DBDFE8"/>
</linearGradient>
<linearGradient id="paint8_linear_10292_7568" x1="1742.82" y1="128.495" x2="1742.82" y2="219.56" gradientUnits="userSpaceOnUse">
<stop stop-color="#68789E"/>
<stop offset="1" stop-color="#8592B0"/>
</linearGradient>
</defs>
</svg>
